<?xml version="1.0" standalone="no"?>
<!DOCTYPE svg PUBLIC "-//W3C//DTD SVG 20010904//EN"
 "http://www.w3.org/TR/2001/REC-SVG-20010904/DTD/svg10.dtd">
<svg version="1.0" xmlns="http://www.w3.org/2000/svg"
 width="512.000000pt" height="512.000000pt" viewBox="0 0 512.000000 512.000000"
 preserveAspectRatio="xMidYMid meet">
<metadata>
Created by potrace 1.14, written by Peter Selinger 2001-2017
</metadata>
<g transform="translate(0.000000,512.000000) scale(0.100000,-0.100000)"
fill="#000000" stroke="none">
<path d="M2375 5114 c-135 -22 -439 -150 -623 -263 -46 -28 -86 -51 -89 -51
-14 0 -122 -88 -165 -134 -52 -56 -59 -75 -28 -83 11 -3 20 -8 20 -12 0 -3
-25 -28 -55 -54 -65 -57 -90 -99 -76 -126 9 -16 -5 -51 -29 -71 -20 -17 -50
-66 -50 -82 0 -16 3 -15 24 9 l25 28 -23 -65 c-12 -36 -30 -79 -39 -97 -21
-39 -21 -44 -2 -37 19 8 19 -1 -1 -59 -11 -34 -13 -51 -5 -60 10 -13 2 -98
-19 -194 -17 -74 -23 -353 -10 -491 12 -140 46 -335 61 -361 6 -10 7 -56 2
-124 l-8 -109 -40 -14 c-64 -21 -85 -56 -85 -139 0 -38 5 -86 10 -106 15 -52
132 -224 152 -223 13 1 18 -12 23 -75 5 -48 13 -83 24 -95 15 -17 19 -35 23
-111 1 -16 -5 -51 -12 -77 -13 -45 -13 -48 19 -108 24 -47 30 -70 26 -92 -4
-16 -3 -34 3 -41 11 -15 38 -99 47 -150 12 -64 104 -190 174 -237 20 -14 21
-17 7 -35 -8 -11 -18 -16 -22 -12 -5 4 -2 12 5 16 15 10 7 31 -12 31 -8 0 -8
-3 2 -9 10 -7 10 -10 1 -16 -7 -4 -16 -1 -21 6 -5 8 -9 10 -9 6 0 -9 -67 39
-93 67 -9 11 -20 17 -23 14 -7 -8 138 -151 232 -228 184 -151 784 -575 890
-628 l41 -21 11 23 c10 24 81 50 107 40 7 -3 15 4 18 15 3 12 16 25 30 30 24
9 47 28 114 94 18 17 36 49 42 72 8 33 100 167 141 205 3 3 14 22 25 42 11 21
23 38 27 38 5 0 8 9 8 19 0 12 15 28 39 42 22 12 42 31 45 43 5 20 4 20 -9 3
-7 -10 -21 -17 -32 -15 -10 2 -17 -2 -16 -9 2 -7 -4 -10 -13 -6 -13 5 -13 8 3
26 10 11 33 26 51 34 17 7 32 17 32 22 0 5 12 12 26 15 35 9 103 55 135 91 15
17 67 63 117 104 58 47 93 84 97 100 3 14 25 55 49 91 58 89 138 259 135 290
-3 28 38 97 61 105 9 3 31 0 50 -5 36 -10 86 -13 61 -3 -17 7 -52 40 -72 71
-16 22 -15 28 2 78 11 29 19 63 19 74 0 17 4 20 20 15 10 -3 32 1 47 9 16 8
49 17 75 21 62 9 101 35 123 81 17 35 17 40 1 90 -14 44 -24 57 -65 83 -61 39
-91 103 -80 166 4 22 10 62 14 88 4 27 12 50 18 51 7 2 38 9 69 16 l57 13 26
76 c15 42 33 92 41 111 24 60 42 149 69 333 14 98 30 188 34 200 9 26 4 78
-10 92 -5 5 -9 32 -8 60 0 27 3 44 6 38 2 -7 9 -13 15 -13 16 0 4 110 -16 148
-16 30 -16 32 2 32 17 0 18 5 11 49 -8 52 -44 137 -84 194 -13 20 -38 67 -55
104 -35 78 -100 145 -170 175 -24 11 -46 21 -48 23 -2 2 6 21 17 44 23 45 27
100 10 164 -10 39 -19 47 -115 110 -309 201 -608 316 -994 383 -115 20 -188
26 -350 29 -113 2 -218 1 -235 -1z m-802 -461 c-10 -30 -25 -43 -46 -43 -19 0
-19 2 8 30 32 34 47 39 38 13z m2541 -314 c5 -5 7 -11 5 -14 -8 -7 -69 18 -69
28 0 11 51 0 64 -14z m-899 -118 c3 -5 -7 -12 -22 -14 -16 -3 58 -3 162 -2
105 2 174 1 155 -2 -36 -5 -66 -23 -40 -23 52 -1 262 -31 284 -41 33 -15 33
-27 1 -35 -28 -7 -29 -30 -1 -28 9 1 16 -4 16 -12 0 -8 10 -14 23 -14 14 0 40
-18 70 -50 l46 -49 -23 -18 c-23 -19 -23 -19 -5 -42 21 -25 17 -43 -6 -34 -19
7 -19 4 0 -41 8 -20 12 -36 8 -36 -5 0 -9 -57 -10 -128 -2 -103 1 -136 16
-177 62 -166 88 -265 96 -366 9 -121 10 -124 55 -144 45 -20 144 -120 153
-154 7 -28 0 -27 -56 9 -69 43 -130 73 -232 113 -84 32 -120 49 -154 71 -11 7
-11 10 0 17 10 6 8 9 -9 9 -13 0 -20 -4 -17 -10 3 -5 2 -10 -3 -10 -13 0 -22
40 -15 68 3 14 11 21 19 18 8 -3 14 -2 14 3 0 10 -49 21 -90 21 -15 0 -37 9
-49 19 l-22 20 28 3 c77 9 -3 117 -144 194 -93 51 -143 60 -243 45 -30 -5 -47
-9 -37 -10 9 0 17 -5 17 -10 0 -4 -26 -2 -57 5 -75 18 -283 19 -305 2 -22 -18
-58 -79 -58 -100 0 -10 -9 -27 -21 -39 -21 -21 -20 -48 3 -50 7 0 4 -4 -7 -9
-18 -8 -18 -9 5 -10 22 0 23 -2 7 -11 -9 -5 -22 -7 -29 -3 -6 4 -8 3 -4 -4 3
-5 1 -12 -5 -14 -6 -2 -12 -15 -13 -28 -1 -14 -6 -25 -11 -24 -21 2 -101 28
-112 37 -9 6 -19 5 -30 -4 -11 -10 -14 -10 -9 -1 8 13 -15 17 -28 5 -8 -9 -77
-33 -93 -33 -7 0 -13 7 -13 16 0 10 -6 14 -14 11 -9 -4 -13 -1 -10 6 2 7 -10
26 -27 42 -18 17 -29 24 -25 18 9 -16 1 -16 -25 -2 -11 5 -52 19 -92 29 -86
23 -61 26 38 5 69 -15 70 -15 93 8 l23 23 -20 46 c-34 80 -83 103 -237 113
-60 3 -141 13 -180 21 -118 24 -236 -13 -327 -103 -41 -40 -53 -60 -71 -115
-3 -10 -13 -18 -23 -18 -25 0 -83 -37 -83 -52 0 -7 -12 -24 -27 -38 -26 -25
-26 -25 -5 -28 22 -3 32 -32 11 -32 -27 0 -49 22 -49 50 0 62 24 180 65 325
42 147 55 210 59 290 2 37 14 73 38 120 6 10 12 40 13 65 2 64 37 123 124 212
84 86 102 92 149 53 70 -59 110 -68 337 -76 116 -4 237 -8 269 -8 111 -2 45
-16 -97 -21 -153 -6 -197 -20 -197 -63 0 -19 2 -18 24 6 23 25 24 25 147 20
106 -5 132 -2 182 14 68 24 76 10 11 -18 -30 -14 -70 -21 -119 -22 -53 -2 -71
-5 -64 -13 15 -19 112 -26 180 -14 70 13 107 29 160 71 20 16 48 29 63 29 14
0 41 14 61 31 19 17 35 26 35 20 0 -20 20 -12 74 29 59 45 72 49 56 20 -13
-25 -17 -25 72 6 147 52 192 62 203 45z m-1323 -26 c36 -16 96 -31 169 -41 63
-8 119 -17 124 -19 6 -3 -46 -4 -115 -2 -121 2 -127 3 -182 35 -93 54 -90 70
4 27z m2332 -117 c14 -52 -4 -56 -49 -12 -13 14 -14 19 -3 25 23 15 46 9 52
-13z m-108 -13 c3 -8 2 -20 -3 -27 -4 -7 -8 -22 -8 -33 0 -12 -10 -23 -28 -29
-22 -8 -31 -6 -47 10 -19 18 -19 21 -4 43 12 17 22 21 40 17 19 -5 24 -2 24
14 0 23 18 27 26 5z m-107 -95 l-1 -25 -8 25 c-4 14 -8 32 -9 40 -1 13 0 13 9
0 5 -8 9 -26 9 -40z m-1159 -604 c0 -2 -8 -10 -17 -17 -16 -13 -17 -12 -4 4
13 16 21 21 21 13z m-916 -158 c-4 -7 -3 -8 4 -4 7 4 22 -2 34 -14 l22 -20
-33 6 c-24 5 -37 3 -45 -7 -11 -15 -100 -49 -126 -49 -27 0 -144 -84 -214
-154 -74 -74 -86 -75 -86 -3 0 35 2 37 30 37 20 0 30 5 30 15 0 8 -4 15 -10
15 -5 0 -10 16 -10 36 0 21 -4 33 -10 29 -5 -3 -10 -18 -10 -33 0 -15 -5 -34
-11 -42 -8 -11 -9 -2 -6 35 4 39 11 54 34 72 72 58 183 90 321 92 68 1 91 -2
86 -11z m1551 -81 c22 -7 56 -28 78 -51 l38 -40 -3 -82 c-3 -94 6 -98 20 -9 8
57 9 59 20 33 12 -30 35 -39 26 -10 -5 15 -5 15 5 0 8 -12 21 -15 51 -11 32 5
58 -2 137 -38 125 -55 133 -62 133 -113 0 -23 5 -70 10 -106 10 -67 -5 -171
-35 -250 -12 -31 -38 -105 -91 -260 -9 -25 -22 -71 -31 -102 -12 -44 -20 -58
-34 -58 -25 0 -56 -44 -64 -90 -4 -22 -11 -40 -16 -40 -5 0 -27 -17 -50 -37
-36 -33 -40 -41 -36 -72 2 -20 7 -45 12 -56 7 -19 7 -19 -10 -4 -10 10 -20 39
-23 70 -5 38 -11 54 -22 54 -9 0 -16 -11 -18 -27 -4 -30 -54 -73 -105 -89 -17
-6 -41 -14 -52 -19 -11 -5 -48 -11 -81 -14 -53 -5 -69 -2 -110 20 -70 37 -82
50 -63 69 14 14 18 12 40 -22 13 -20 30 -39 37 -41 8 -2 -2 18 -21 44 -41 59
-49 78 -36 91 15 15 -35 144 -66 171 -19 15 -33 20 -51 16 -18 -5 -31 1 -53
25 -36 38 -39 38 -34 4 l4 -28 -18 25 c-29 41 -66 75 -100 95 -18 11 -34 26
-34 35 -1 11 -2 11 -6 -2 -2 -10 -9 -18 -15 -18 -5 0 -8 7 -5 15 4 8 2 17 -3
20 -17 11 -11 25 8 18 10 -4 5 7 -15 28 -38 40 -40 49 -14 49 29 0 63 49 56
80 -4 14 -11 27 -16 28 -5 2 -9 13 -9 25 0 13 -3 17 -8 10 -13 -21 -37 -18
-73 10 -52 40 -90 36 -142 -13 -35 -32 -38 -40 -22 -40 11 0 26 -4 34 -9 9 -6
-9 -12 -53 -20 -70 -12 -105 -4 -137 35 -13 16 -12 16 9 5 65 -34 25 28 -47
73 -50 32 -74 33 -101 4 -30 -32 -36 -65 -16 -87 12 -13 14 -21 7 -26 -6 -3
-14 2 -18 12 -4 10 -11 21 -15 24 -5 3 -16 24 -23 45 l-14 39 -1 -62 c0 -56 3
-64 28 -83 l27 -22 -26 -21 c-15 -12 -46 -38 -70 -58 -24 -20 -55 -39 -69 -42
-23 -6 -53 -24 -171 -105 -60 -41 -64 -46 -94 -126 -26 -68 -33 -140 -15 -151
16 -10 0 -26 -19 -20 -10 3 -34 -1 -54 -10 -46 -19 -52 -19 -74 3 -10 10 -43
29 -73 41 -30 12 -62 27 -70 34 -37 29 -102 245 -151 502 -29 150 -28 493 1
557 11 24 62 58 87 58 5 0 15 -41 22 -92 19 -134 37 -187 80 -229 121 -120
578 -130 733 -16 35 26 50 52 79 141 12 36 26 66 30 66 5 0 7 -26 4 -57 -3
-32 -2 -51 1 -43 4 8 12 29 19 45 23 54 36 102 30 116 -7 19 43 57 92 68 l38
9 -42 1 c-34 1 -49 -5 -78 -30 -35 -31 -35 -31 -35 -8 1 47 24 62 102 66 47 3
88 0 113 -9 37 -13 40 -16 39 -50 -1 -35 -25 -74 -38 -61 -13 13 -5 -34 9 -54
8 -12 21 -45 29 -75 10 -39 16 -48 21 -35 4 9 2 23 -4 31 -6 7 -8 16 -4 19 3
4 24 -25 45 -63 21 -39 50 -82 65 -95 29 -25 90 -51 99 -42 3 3 -8 8 -24 11
-45 11 -88 55 -132 138 -46 88 -49 101 -17 66 l23 -25 12 26 c17 37 15 68 -8
91 -24 24 -25 30 -5 30 8 0 15 -7 15 -16 0 -12 7 -15 30 -12 24 4 30 1 25 -10
-4 -10 0 -12 11 -8 10 4 25 -1 36 -10 10 -10 21 -14 25 -11 3 4 0 7 -8 7 -11
0 -11 2 1 10 10 6 11 10 3 10 -7 0 -13 4 -13 9 0 17 65 20 120 6 44 -11 47
-13 15 -9 -29 3 -35 2 -24 -5 9 -6 59 -8 122 -4 82 5 107 9 112 21 3 9 1 18
-5 22 -12 7 -3 60 9 60 4 0 26 -9 49 -20 22 -11 45 -20 50 -20 5 0 15 -7 22
-15 10 -12 10 -18 0 -30 -11 -13 -8 -14 18 -9 23 5 48 -2 95 -23 54 -26 66
-28 81 -17 21 15 16 52 -9 78 -23 23 -36 64 -22 69 15 5 -49 67 -70 67 -8 0
-12 3 -10 8 3 4 -10 7 -29 8 -36 1 -58 14 -35 22 11 4 11 6 0 14 -17 11 57 2
116 -15z m-1470 3 c4 -6 -10 -10 -33 -10 -52 0 -162 -34 -196 -61 -14 -11 -26
-17 -26 -12 2 38 236 114 255 83z m1338 -31 c66 -25 147 -92 147 -120 0 -27
-34 -24 -53 4 -12 19 -64 49 -152 88 -51 23 -111 39 -142 39 -23 0 -32 4 -27
11 11 19 160 4 227 -22z m-953 -84 c0 -42 -3 -55 -15 -55 -32 0 -55 -38 -54
-87 1 -30 4 -37 6 -20 4 26 23 39 23 15 -1 -26 -21 -99 -37 -138 -14 -31 -27
-44 -63 -59 -97 -41 -130 -46 -335 -46 -312 1 -354 19 -401 174 -24 80 -23 81
54 74 57 -5 75 -2 110 16 22 11 51 21 64 21 12 0 32 12 43 26 19 24 23 25 60
15 82 -23 174 -7 202 35 13 20 14 27 4 34 -7 4 -11 14 -9 21 2 11 19 13 78 9
l75 -5 -45 -32 c-25 -18 -50 -37 -57 -43 -7 -5 -18 -10 -24 -10 -7 0 -9 -3 -6
-7 4 -3 2 -12 -4 -19 -9 -11 -4 -13 30 -10 53 5 54 -10 1 -64 -22 -22 -40 -43
-40 -45 0 -3 15 -2 33 2 38 7 99 47 146 97 27 28 32 38 22 49 -9 12 0 14 60
11 l71 -2 -5 43 c-4 39 -1 55 10 55 2 0 3 -25 3 -55z m-155 15 c-3 -5 -12 -10
-18 -10 -7 0 -6 4 3 10 19 12 23 12 15 0z m480 -15 c-2 -14 1 -27 6 -31 13 -7
1 -24 -17 -24 -11 0 -13 8 -9 32 9 49 24 68 20 23z m-378 -591 c-3 -3 -12 -4
-19 -1 -8 3 -5 6 6 6 11 1 17 -2 13 -5z m487 -39 c-6 -16 -24 -21 -24 -7 0 11
11 22 21 22 5 0 6 -7 3 -15z m1201 -45 c23 -45 19 -76 -17 -111 -36 -34 -45
-26 -30 23 6 18 14 52 17 76 4 23 8 42 11 42 2 0 10 -13 19 -30z m-1651 -271
c35 -15 64 -20 114 -18 37 1 72 6 78 10 21 17 71 13 100 -8 16 -11 49 -31 74
-43 25 -12 47 -26 50 -29 3 -4 21 -17 41 -29 19 -12 44 -30 54 -42 36 -40 -25
-23 -104 30 -42 27 -102 61 -133 75 -54 25 -60 25 -116 14 -51 -11 -69 -10
-131 5 -65 16 -76 16 -124 2 -28 -8 -83 -34 -122 -56 -49 -29 -76 -39 -92 -35
-13 3 -21 10 -18 16 12 18 242 127 271 129 6 0 32 -9 58 -21z m-181 -198 c48
-17 108 -33 133 -37 55 -8 41 -24 -22 -24 -37 0 -45 -5 -82 -49 -39 -46 -68
-99 -59 -108 2 -2 16 1 30 6 33 13 37 7 30 -45 -3 -24 -3 -44 1 -44 4 0 24 9
46 20 l39 20 -10 -28 c-5 -15 -28 -39 -52 -54 -88 -56 -137 -122 -137 -181 0
-35 -49 -87 -82 -87 -40 1 -101 35 -152 86 -53 52 -72 84 -110 176 l-23 56 23
11 c14 6 28 26 35 52 8 26 25 51 47 68 19 14 62 50 96 80 76 67 136 111 151
111 6 0 50 -13 98 -29z m357 19 c0 -5 -11 -10 -25 -10 -14 0 -25 5 -25 10 0 6
11 10 25 10 14 0 25 -4 25 -10z m383 -97 c29 -27 71 -64 95 -83 23 -18 42 -39
42 -45 0 -7 7 -18 16 -26 9 -7 29 -33 46 -57 l30 -44 -28 -29 c-15 -16 -35
-29 -44 -29 -8 0 -26 -7 -38 -16 -21 -14 -21 -17 -7 -45 19 -36 11 -53 -47
-101 -46 -38 -120 -68 -168 -68 -16 0 -42 11 -60 27 -24 20 -34 23 -40 14 -9
-15 -13 -9 -30 44 -7 22 -17 46 -23 53 -18 23 -25 12 -14 -23 9 -30 8 -39 -6
-52 -15 -15 -16 -14 -23 13 -11 44 -57 115 -71 109 -7 -2 -13 0 -13 5 0 6 -10
10 -22 10 -13 1 -35 11 -50 23 -26 21 -27 25 -16 60 10 34 14 37 48 37 32 0
91 28 65 30 -5 1 8 7 30 13 32 10 40 18 46 44 9 47 -32 131 -69 139 -74 16
-77 22 -12 24 36 1 88 8 115 15 28 7 83 11 123 10 72 -2 73 -3 125 -52z m-537
-414 c-12 -28 -15 -30 -15 -12 -1 29 23 83 27 61 2 -9 -4 -31 -12 -49z m-716
-213 c0 -3 -4 -8 -10 -11 -5 -3 -10 -1 -10 4 0 6 5 11 10 11 6 0 10 -2 10 -4z
m1470 -146 c0 -5 -5 -10 -11 -10 -5 0 -7 5 -4 10 3 6 8 10 11 10 2 0 4 -4 4
-10z"/>
<path d="M2605 2990 c3 -5 8 -10 11 -10 2 0 4 5 4 10 0 6 -5 10 -11 10 -5 0
-7 -4 -4 -10z"/>
<path d="M2636 2957 c3 -10 9 -15 12 -12 3 3 0 11 -7 18 -10 9 -11 8 -5 -6z"/>
<path d="M3513 2829 c-18 -5 -33 -12 -33 -15 0 -8 81 6 100 17 21 12 -24 10
-67 -2z"/>
<path d="M3530 2635 c-13 -14 -38 -29 -54 -34 -20 -6 -24 -10 -12 -10 22 -1
83 37 91 57 7 18 1 15 -25 -13z"/>
<path d="M2256 2623 c-6 -14 -5 -15 5 -6 7 7 10 15 7 18 -3 3 -9 -2 -12 -12z"/>
<path d="M2855 2580 c21 -24 26 -25 19 -6 -3 8 -13 17 -22 21 -13 5 -13 2 3
-15z"/>
<path d="M3008 2593 c7 -3 16 -2 19 1 4 3 -2 6 -13 5 -11 0 -14 -3 -6 -6z"/>
<path d="M3040 2592 c0 -19 339 -31 382 -14 9 4 -61 7 -155 8 -95 0 -184 4
-199 7 -16 4 -28 3 -28 -1z"/>
<path d="M2226 2563 c-6 -14 -5 -15 5 -6 7 7 10 15 7 18 -3 3 -9 -2 -12 -12z"/>
<path d="M2851 2545 c7 -16 15 -46 19 -65 l8 -35 1 41 c1 29 -5 49 -19 65
l-20 24 11 -30z"/>
<path d="M2455 2519 c-12 -18 1 -20 31 -4 l29 15 -27 0 c-15 0 -30 -5 -33 -11z"/>
<path d="M2919 2159 c12 -12 25 -18 29 -14 4 4 -2 13 -12 21 -30 22 -43 17
-17 -7z"/>
<path d="M4280 2664 c-142 -44 -161 -57 -142 -99 15 -32 63 -56 99 -49 25 5
31 1 41 -21 7 -15 16 -25 19 -21 4 3 0 17 -7 31 -12 22 -11 27 6 39 22 17 80
30 94 21 13 -8 13 26 1 58 -13 33 -70 54 -111 41z"/>
<path d="M4391 2394 c-25 -57 -79 -136 -145 -210 -25 -29 -49 -46 -72 -50 -38
-7 -57 -25 -49 -47 5 -12 16 -10 67 17 57 29 67 39 132 140 39 59 70 112 69
117 -2 5 1 9 7 9 9 0 26 67 19 75 -2 2 -15 -21 -28 -51z"/>
<path d="M1425 1343 c8 -10 21 -27 29 -38 8 -11 17 -17 21 -14 7 8 -43 69 -56
69 -5 0 -2 -8 6 -17z"/>
<path d="M942 1206 c-22 -20 -45 -35 -50 -34 -5 2 -32 -18 -58 -44 -80 -76
-96 -97 -88 -109 5 -8 2 -10 -8 -7 -19 8 -51 -44 -41 -68 5 -13 3 -16 -10 -11
-12 5 -17 1 -17 -13 0 -11 -7 -20 -15 -20 -34 0 -10 -38 83 -132 277 -283 619
-501 984 -627 46 -16 100 -32 121 -36 l38 -7 -30 48 c-17 26 -31 53 -31 60 0
6 -48 75 -107 153 -60 77 -137 182 -173 232 -71 100 -177 236 -290 369 -39 47
-74 91 -77 97 -3 7 9 29 26 48 17 20 40 53 50 74 l20 38 -77 7 c-42 3 -107 9
-143 12 -66 6 -66 6 -107 -30z m-219 -221 c-3 -9 -8 -14 -10 -11 -3 3 -2 9 2
15 9 16 15 13 8 -4z"/>
<path d="M3381 632 c-2 -20 -80 -132 -97 -139 -8 -3 -11 -9 -8 -14 8 -13 77
57 98 99 10 18 15 41 13 50 -3 9 -5 11 -6 4z"/>
<path d="M3474 513 c5 -60 7 -125 7 -145 -1 -21 0 -38 2 -38 3 0 15 27 27 60
19 50 26 60 46 60 13 0 24 3 24 6 0 3 -18 31 -39 62 -21 32 -42 67 -46 80 -3
12 -11 22 -17 22 -8 0 -9 -32 -4 -107z"/>
<path d="M3240 455 c-7 -8 -8 -15 -2 -15 5 0 15 7 22 15 7 8 8 15 2 15 -5 0
-15 -7 -22 -15z"/>
<path d="M3600 422 c0 -6 10 -37 21 -69 12 -32 26 -68 30 -80 10 -28 39 -20
39 11 0 11 -20 50 -45 85 -25 36 -45 59 -45 53z"/>
<path d="M2730 382 c0 -10 11 -28 23 -41 21 -19 27 -20 53 -10 16 7 32 12 37
11 4 -1 7 2 7 8 0 12 -27 13 -34 1 -7 -11 -46 -2 -46 11 0 10 -25 38 -34 38
-3 0 -6 -8 -6 -18z"/>
<path d="M3543 360 c-10 -39 -10 -40 17 -40 27 0 27 1 17 40 -6 22 -14 40 -17
40 -3 0 -11 -18 -17 -40z"/>
<path d="M3514 266 c-3 -14 -15 -28 -25 -31 -19 -6 -37 -50 -25 -62 6 -7 89
23 127 46 21 13 25 20 18 39 -6 14 -17 22 -33 22 -13 0 -31 3 -40 6 -10 4 -17
-2 -22 -20z"/>
<path d="M2733 250 c-10 -11 -34 -34 -54 -52 -20 -18 -64 -70 -98 -116 l-61
-83 147 6 c134 5 322 27 344 41 5 3 9 15 9 27 0 49 15 54 73 24 51 -26 85 -29
119 -10 11 6 -18 59 -65 122 l-42 54 -7 -38 c-6 -28 -4 -44 7 -62 l16 -24 -30
15 c-16 9 -48 16 -69 16 -24 0 -49 8 -65 20 -14 11 -34 20 -44 20 -42 0 -125
-32 -169 -66 -55 -42 -69 -40 -20 3 19 17 41 42 51 56 16 24 15 27 -3 45 -20
20 -21 20 -39 2z"/>
<path d="M3035 241 c-3 -5 -1 -12 5 -16 5 -3 10 1 10 9 0 18 -6 21 -15 7z"/>
</g>
</svg>
